<?xml version="1.0" encoding="utf-8"?>
<!-- Generator: Adobe Illustrator 18.1.1, SVG Export Plug-In . SVG Version: 6.00 Build 0)  -->
<!DOCTYPE svg PUBLIC "-//W3C//DTD SVG 1.1 Tiny//EN" "http://www.w3.org/Graphics/SVG/1.1/DTD/svg11-tiny.dtd">
<svg version="1.1" baseProfile="tiny" id="Layer_1" xmlns="http://www.w3.org/2000/svg" xmlns:xlink="http://www.w3.org/1999/xlink"
	 x="0px" y="0px" viewBox="0 0 841.9 595.3" xml:space="preserve">
<g id="Layer_1_1_">
</g>
<g id="Color_Menu_Option" display="none">
</g>
<g id="Single_Menu">
	<g>
		<polygon fill="#063342" points="37.3,312.2 25.9,323.6 14.6,312.2 25.9,300.9 		"/>
		<polygon fill="#063342" points="77.8,312.2 66.5,323.6 55.1,312.2 66.5,300.9 		"/>
		<polygon fill="#063342" points="118.3,312.2 107,323.6 95.6,312.2 107,300.9 		"/>
		<polygon fill="#063342" points="158.8,312.2 147.5,323.6 135.3,312.2 147.5,300.9 		"/>
		<polygon fill="#063342" points="199.3,312.2 187.2,323.6 175.8,312.2 187.2,300.9 		"/>
		<polygon fill="#063342" points="239,312.2 227.7,323.6 216.4,312.2 227.7,300.9 		"/>
		<polygon fill="#063342" points="279.6,312.2 268.2,323.6 256.9,312.2 268.2,300.9 		"/>
		<path fill="#958864" d="M20.3,264.4v-8.9l19.4-2.4c7.3-0.8,8.1-1.6,8.1-7.3v-77c0-4.1-0.8-4.9-2.4-4.9s-3.2,0.8-7.3,2.4l-18.6,7.3
			v-9.7l51.9-32.4v114.3c0,1.6,0,3.2,0.8,4.1c0.8,1.6,3.2,3.2,8.9,4.1l17.8,2.4v8.9H20.3V264.4z"/>
		<path fill="#958864" d="M155.6,266.8c-19.4,0-30-6.5-30-17.8c0-1.6,0-3.2,0.8-5.7c10.5,4.9,21.1,7.3,29.2,7.3
			c24.3,0,38.1-16.2,41.3-47.8c-9.7,9.7-22.7,14.6-34.8,14.6c-20.3,0-36.5-15.4-36.5-36.5c0-24.3,21.9-42.9,48.6-42.9
			c28.4,0,45.4,21.1,45.4,55.9C220.4,236.9,193.7,266.8,155.6,266.8 M170.2,152.6c-11.3,0-21.1,9.7-21.1,22.7
			c0,16.2,13,28.4,29.2,28.4c6.5,0,12.2-1.6,18.6-4.9C196.9,170.4,186.4,152.6,170.2,152.6"/>
		<path fill="#958864" d="M103.7,484H8.1c12.2-13.8,15.4-17.8,32.4-38.9c25.9-31.6,32.4-42.9,32.4-53.5c0-8.1-6.5-13.8-16.2-13.8
			c-5.7,0-10.5,1.6-16.2,4.9c-7.3,4.9-13,9.7-22.7,21.9v-4.1c0-9.7,2.4-18.6,8.1-25.1c8.1-9.7,22.7-16.2,38.1-16.2
			c20.3,0,33.2,9.7,33.2,25.9c0,7.3-3.2,15.4-8.1,23.5c-5.7,8.1-13,17-24.3,29.2l-25.9,25.9h51.9c7.3,0,8.9-1.6,12.2-10.5h8.1
			L103.7,484z"/>
		<path fill="#958864" d="M173.4,486.4c-29.2,0-45.4-21.9-45.4-61.6s21.9-67.3,53.5-67.3c27.5,0,44.6,22.7,44.6,59.2
			C225.3,458.1,204.2,486.4,173.4,486.4 M177.5,371.4c-15.4,0-24.3,18.6-24.3,49.4s9.7,51.9,24.3,51.9s24.3-19.4,24.3-49.4
			C201,392.4,191.2,371.4,177.5,371.4"/>
		<path fill="#958864" d="M260.9,484v-17.8l55.9-8.9c11.3-1.6,16.2-7.3,16.2-23.5V202c0-10.5-4.1-14.6-11.3-14.6
			c-5.7,0-13,2.4-26.7,7.3l-38.1,15.4v-21.1L387.3,104v327.4c0,17.8,3.2,22.7,16.2,25.1l54.3,8.9v17.8H260.9V484z"/>
		<path fill="#958864" d="M573.7,491.3c-76.2,0-122.4-60-122.4-159.6c0-125.6,72.1-212.3,175.8-212.3c25.1,0,46.2,4.9,60.8,13.8
			c10.5,6.5,16.2,17.8,16.2,33.2c0,2.4,0,5.7-0.8,11.3c-26.7-13-52.7-19.4-77-19.4c-30.8,0-63.2,13-82.6,34.8
			c-25.1,27.5-36.5,60-40.5,123.2c36.5-34.8,69.7-51,106.1-51c55.1,0,96.4,44.6,96.4,102.9C705,436.2,646.6,491.3,573.7,491.3
			 M575.3,307.4c-23.5,0-42.1,5.7-72.1,21.1c4.1,80.2,35.7,128,85.1,128c36.5,0,64-30,64-69.7C652.3,339.8,620.7,307.4,575.3,307.4"
			/>
	</g>
</g>
<g id="Overlay" display="none">
</g>
<g id="Hover_State" display="none">
</g>
<g id="Grid">
</g>
</svg>
