<?xml version="1.0" encoding="utf-8"?>
<!-- Generator: Adobe Illustrator 18.1.1, SVG Export Plug-In . SVG Version: 6.00 Build 0)  -->
<!DOCTYPE svg PUBLIC "-//W3C//DTD SVG 1.1 Tiny//EN" "http://www.w3.org/Graphics/SVG/1.1/DTD/svg11-tiny.dtd">
<svg version="1.1" baseProfile="tiny" id="Layer_1" xmlns="http://www.w3.org/2000/svg" xmlns:xlink="http://www.w3.org/1999/xlink"
	 x="0px" y="0px" viewBox="0 0 228.7 143.7" xml:space="preserve">
<g>
	<polygon fill="#9E8C5D" points="14.3,78 10.3,82 6.3,78 10.3,74 	"/>
	<polygon fill="#9E8C5D" points="25.4,78 21.4,82 17.5,78 21.4,74 	"/>
	<polygon fill="#9E8C5D" points="36.5,78 32.6,82 28.6,78 32.6,74 	"/>
	<polygon fill="#9E8C5D" points="47.7,78 43.7,82 39.7,78 43.7,74 	"/>
	<polygon fill="#9E8C5D" points="58.8,78 54.8,82 50.9,78 54.8,74 	"/>
	<polygon fill="#9E8C5D" points="69.9,78 66,82 62,78 66,74 	"/>
	<polygon fill="#9E8C5D" points="81.1,78 77.1,82 73.1,78 77.1,74 	"/>
	<g>
		<g>
			<g>
				<path fill="#FFFFFF" d="M7.8,61.5l0-2.7l6.1-0.7c2.1-0.2,2.5-0.6,2.5-2.2l0-23.7c0-1.2-0.2-1.5-0.8-1.5c-0.4,0-1,0.2-2.3,0.7
					l-5.7,2.2l0-3.1l16.1-10l0,35.3c0,0.5,0.1,1,0.2,1.2c0.2,0.6,1.1,1,2.9,1.2l5.4,0.7v2.7L7.8,61.5z"/>
				<path fill="#FFFFFF" d="M49.5,62.2c-6.1,0-9.3-1.9-9.3-5.5c0-0.6,0.1-0.9,0.2-1.8c3.2,1.5,6.4,2.3,9,2.3
					c7.4,0,11.9-5.1,12.8-14.8c-3.1,3-6.9,4.6-10.8,4.6c-6.3,0-11.2-4.8-11.2-11.2c0-7.4,6.7-13.3,15-13.3c8.7,0,14,6.5,14,17.1
					C69.3,53.1,61.2,62.2,49.5,62.2z M53.9,26.9c-3.6,0-6.4,3-6.4,6.9c0,5,3.9,8.8,9,8.8c1.9,0,3.8-0.5,5.8-1.5
					C62.3,32.5,58.9,26.9,53.9,26.9z"/>
			</g>
			<g>
				<path fill="#FFFFFF" d="M32.3,130.9l-29.3,0c3.8-4.3,4.8-5.6,10.1-12c8-9.8,10.1-13.1,10.1-16.5c0-2.6-2-4.3-4.9-4.3
					c-1.7,0-3.4,0.5-5.1,1.5c-2.4,1.4-4.1,3-7,6.6l0-1.3c0-3,0.8-5.7,2.5-7.7c2.5-3,7.1-5,11.7-5c6.2,0,10.3,3.1,10.3,7.9
					c0,2.2-0.9,4.8-2.6,7.1c-1.7,2.4-4.1,5.3-7.6,8.9l-8.2,8.6l15.9,0c2.3,0,2.9-0.4,3.7-3.3l2.5,0L32.3,130.9z"/>
				<path fill="#FFFFFF" d="M53.8,131.6c-9,0-13.9-6.8-13.9-19c0-12.3,6.7-20.7,16.4-20.7c8.4,0,13.7,7.1,13.7,18.3
					C70,122.9,63.4,131.6,53.8,131.6z M55,96.1c-4.7,0-7.5,5.7-7.5,15.3c0,9.5,3,15.9,7.5,15.9c4.5,0,7.4-6.1,7.4-15.3
					C62.5,102.5,59.4,96.1,55,96.1z"/>
			</g>
			<path fill="#FFFFFF" d="M86.6,129.1l0-5.6l17.3-2.7c3.5-0.5,4.9-2.4,4.9-7.3l0-71.5c0-3.2-1.2-4.6-3.5-4.6c-1.8,0-4,0.7-8.2,2.4
				l-11.8,4.7v-6.4l40.3-26.1l0,101c0,5.6,1,7.1,5,7.8l16.8,2.7v5.6L86.6,129.1z"/>
			<path fill="#FFFFFF" d="M185,131.3c-23.5,0-37.7-18.6-37.7-49.3c0-38.6,22.2-65.4,54.3-65.4c7.7,0,14.3,1.5,18.8,4.2
				c3.4,2,5,5.4,5,10.3c0,0.8,0,1.7-0.2,3.5c-8.2-3.9-16.3-5.9-23.7-5.9c-9.6,0-19.5,4-25.6,10.6c-7.9,8.6-11.4,18.6-12.8,38
				c11.3-10.8,21.5-15.7,32.6-15.7c17,0,29.8,13.7,29.8,31.7C225.7,114.5,207.5,131.3,185,131.3 M185.6,74.8
				c-7.2,0-13.1,1.7-22.4,6.6c1.2,24.8,10.9,39.5,26.2,39.5c11.3,0,19.7-9.3,19.7-21.6C209.2,84.8,199.6,74.8,185.6,74.8"/>
		</g>
	</g>
</g>
</svg>
