<?xml version="1.0" encoding="utf-8"?>
<!-- Generator: Adobe Illustrator 18.1.1, SVG Export Plug-In . SVG Version: 6.00 Build 0)  -->
<!DOCTYPE svg PUBLIC "-//W3C//DTD SVG 1.1 Tiny//EN" "http://www.w3.org/Graphics/SVG/1.1/DTD/svg11-tiny.dtd">
<svg version="1.1" baseProfile="tiny" id="Layer_1" xmlns="http://www.w3.org/2000/svg" xmlns:xlink="http://www.w3.org/1999/xlink"
	 x="0px" y="0px" viewBox="0 0 680 65" xml:space="preserve">
<g>
	<g>
		<g>
			<path fill="#C55FA4" d="M339,29.2c-1.7,0-3.2-1.4-3.2-3.2c0-1.7,1.4-3.2,3.2-3.2c1.7,0,3.2,1.4,3.2,3.2
				C342.2,27.8,340.8,29.2,339,29.2z M339,24.3c-0.9,0-1.7,0.8-1.7,1.7s0.8,1.7,1.7,1.7s1.7-0.8,1.7-1.7S339.9,24.3,339,24.3z"/>
		</g>
		<g>
			<path fill="#C55FA4" d="M350.1,25.8c-0.3,0-0.5-0.2-0.7-0.4c-1.9-4-5.9-6.5-10.4-6.5c-4.3,0-8.3,2.4-10.3,6.3
				c-0.2,0.4-0.6,0.5-1,0.3c-0.4-0.2-0.5-0.6-0.3-1c2.2-4.4,6.7-7.1,11.6-7.1c5,0,9.5,2.8,11.7,7.3c0.2,0.4,0,0.8-0.3,1
				C350.3,25.7,350.2,25.8,350.1,25.8z"/>
		</g>
		<g>
			<path fill="#C55FA4" d="M343.6,47.9c-0.4,0-0.7-0.3-0.7-0.7l-0.6-10.5c0-0.2,0.1-0.4,0.2-0.6l7.4-6.5l-0.1-0.9
				c-1.9,1.9-6,5.2-10.9,5c-4.9,0.2-8.9-3.1-10.9-5l-0.1,0.9l7.4,6.5c0.2,0.1,0.3,0.4,0.2,0.6L335,47.2c0,0.4-0.4,0.7-0.8,0.7
				c-0.4,0-0.7-0.4-0.7-0.8l0.6-10.2l-7.4-6.5c-0.2-0.1-0.3-0.4-0.2-0.6l0.2-3c0-0.3,0.2-0.6,0.5-0.7c0.3-0.1,0.6,0,0.8,0.2
				c0,0.1,5,6,10.9,5.8c0,0,0,0,0.1,0c5.9,0.2,10.9-5.7,10.9-5.8c0.2-0.2,0.5-0.3,0.8-0.2c0.3,0.1,0.5,0.4,0.5,0.7l0.2,3
				c0,0.2-0.1,0.4-0.2,0.6l-7.4,6.5l0.6,10.2C344.4,47.6,344.1,47.9,343.6,47.9C343.7,47.9,343.7,47.9,343.6,47.9z"/>
		</g>
	</g>
</g>
<g>
	<g>
		<path fill="#93BD4F" d="M45.8,35.3l-4.6-13.9c-0.1-0.3-0.5-0.5-0.8-0.5L38,21.2c-0.1,0-0.2,0-0.3,0c0,0,0,0-0.1,0l-6.6,1l-0.7-3.8
			c-0.1-0.4-0.4-0.6-0.8-0.6l-9.6,1.5c-0.4,0.1-0.7,0.4-0.6,0.8c0.1,0.4,0.4,0.7,0.8,0.6l8.9-1.4l0.7,3.8c0.1,0.4,0.4,0.6,0.8,0.6
			l2.6-0.4l4,12.5l-3.4,0.5l-0.5-2.5c-0.1-0.4-0.4-0.7-0.8-0.6l-7.4,1.2c-0.4,0.1-0.7,0.4-0.6,0.8c0.1,0.4,0.4,0.7,0.8,0.6l6.7-1.1
			l0.5,2.5c0.1,0.4,0.4,0.6,0.7,0.6c0,0,0.1,0,0.1,0l12-1.6c0.2,0,0.4-0.2,0.5-0.3C45.8,35.7,45.8,35.5,45.8,35.3z M38.3,35.7
			l-4-12.5l1-0.1l4.1,12.5L38.3,35.7z M40.6,35.4l-4.1-12.5l1-0.1l4.1,12.5L40.6,35.4z M42.9,35.1l-4.1-12.5l1.2-0.2l4.1,12.5
			L42.9,35.1z"/>
		<path fill="#93BD4F" d="M18.8,21.3L18.8,21.3l-0.2-0.6l-0.2-0.6l0,0l-0.8-2.5c-0.1-0.4-0.5-0.6-0.9-0.5c-0.4,0.1-0.6,0.5-0.5,0.9
			l1,3.1l8.7,26.5c0.1,0.3,0.4,0.5,0.7,0.5c0.1,0,0.2,0,0.2,0c0.4-0.1,0.6-0.5,0.5-0.9L18.8,21.3z"/>
		<path fill="#93BD4F" d="M26.5,20.7l-5.7,0.8c-0.3,0-0.5,0.3-0.4,0.5c0,0.2,0.2,0.4,0.5,0.4c0,0,0,0,0.1,0l5.7-0.8
			c0.3,0,0.5-0.3,0.4-0.5C27,20.9,26.7,20.7,26.5,20.7z"/>
		<path fill="#93BD4F" d="M27.1,23l-5.7,0.8c-0.3,0-0.5,0.3-0.4,0.5c0,0.2,0.2,0.4,0.5,0.4c0,0,0,0,0.1,0l5.7-0.8
			c0.3,0,0.5-0.3,0.4-0.5C27.6,23.1,27.4,22.9,27.1,23z"/>
		<path fill="#93BD4F" d="M27.7,25.2l-5.7,0.8c-0.3,0-0.5,0.3-0.4,0.5c0,0.2,0.2,0.4,0.5,0.4c0,0,0,0,0.1,0l5.7-0.8
			c0.3,0,0.5-0.3,0.4-0.5C28.2,25.3,28,25.1,27.7,25.2z"/>
		<path fill="#93BD4F" d="M28.3,27.4l-5.7,0.8c-0.3,0-0.5,0.3-0.4,0.5c0,0.2,0.2,0.4,0.5,0.4c0,0,0,0,0.1,0l5.7-0.8
			c0.3,0,0.5-0.3,0.4-0.5C28.9,27.5,28.6,27.3,28.3,27.4z"/>
		<path fill="#93BD4F" d="M29,29.6l-5.7,0.8c-0.3,0-0.5,0.3-0.4,0.5c0,0.2,0.2,0.4,0.5,0.4c0,0,0,0,0.1,0l5.7-0.8
			c0.3,0,0.5-0.3,0.4-0.5C29.5,29.7,29.2,29.5,29,29.6z"/>
		<path fill="#93BD4F" d="M23.5,33.1c0,0.2,0.2,0.4,0.5,0.4c0,0,0,0,0.1,0l5.7-0.8c0.3,0,0.5-0.3,0.4-0.5c0-0.3-0.3-0.5-0.5-0.4
			l-5.7,0.8C23.7,32.6,23.5,32.9,23.5,33.1z"/>
	</g>
</g>
<g>
	<g>
		<g>
			<path fill="#DF1A87" d="M442.4,47.7c-0.6,0-1.2,0-1.8-0.1c-3.3-0.5-6.2-2.2-8.2-4.9c-3.3-4.5-2.4-10.8,2.1-14.1
				c3.6-2.7,8.8-2,11.5,1.7c2.2,3,1.6,7.2-1.4,9.4c-1.2,0.9-2.6,1.2-4.1,1c-1.5-0.2-2.7-1-3.6-2.2c-1.5-2-1.1-4.9,0.9-6.4
				c0.8-0.6,1.8-0.9,2.8-0.7c1,0.1,1.9,0.7,2.5,1.5c1,1.4,0.8,3.4-0.7,4.5c-0.6,0.4-1.3,0.6-2,0.5c-0.7-0.1-1.3-0.5-1.8-1.1
				c-0.8-1-0.5-2.5,0.5-3.2c0.9-0.7,2.1-0.5,2.8,0.4c0.2,0.3,0.3,0.5,0.3,0.8c0-0.4-0.1-0.7-0.3-1.1c-0.4-0.5-0.9-0.8-1.5-0.9
				c-0.6-0.1-1.2,0.1-1.7,0.4c-1.4,1-1.7,3-0.6,4.3c0.6,0.9,1.6,1.4,2.7,1.6c1.1,0.2,2.1-0.1,3-0.8c2.3-1.7,2.8-5,1.1-7.3
				c-1.1-1.4-2.6-2.4-4.4-2.6c-1.8-0.3-3.6,0.2-5,1.3c-3.8,2.8-4.6,8.2-1.8,12c1.7,2.3,4.3,3.9,7.2,4.3c2.9,0.4,5.8-0.3,8.1-2.1
				c3-2.2,4.9-5.5,5.4-9.1c0.5-3.7-0.4-7.3-2.6-10.3c-2.6-3.5-6.6-5.5-11-5.5c-0.1,0-0.1,0-0.2,0c-4.6,0-9.1,2.2-12,5.8
				c-0.2,0.3-0.7,0.4-1,0.1c-0.3-0.2-0.4-0.7-0.1-1c3.1-4,8-6.4,13.1-6.4c0.1,0,0.1,0,0.2,0c4.9,0.1,9.3,2.3,12.1,6.1
				c2.4,3.3,3.5,7.3,2.9,11.4c-0.6,4.1-2.7,7.6-6,10.1C447.6,46.8,445.1,47.7,442.4,47.7z"/>
		</g>
	</g>
</g>
<g>
	<g>
		<g>
			<path fill="#049CBD" d="M228.7,46.8c-0.1,0-0.2,0-0.3-0.1c-0.3-0.1-0.4-0.4-0.4-0.7l0-4.8h-3.5c-0.4,0-0.7-0.3-0.7-0.7V27.4
				c0-3.8,3.1-6.9,6.9-6.9h17.6c0.4,0,0.7,0.3,0.7,0.7v13.2c0,3.8-3.1,6.9-6.9,6.9h-6l-6.9,5.4C229,46.8,228.9,46.8,228.7,46.8z
				 M225.2,39.9h3.5c0.2,0,0.4,0.1,0.5,0.2c0.1,0.1,0.2,0.3,0.2,0.5l0,4l5.9-4.6c0.1-0.1,0.3-0.2,0.5-0.2h6.2c3,0,5.4-2.4,5.4-5.4
				V22h-16.8c-3,0-5.4,2.4-5.4,5.4V39.9z"/>
		</g>
		<path fill="#049CBD" d="M235.6,29.8c-1.3-0.3-2.2-0.5-2.2-0.9c0-1.7,2.6-2.5,3-2.7h3.2c0.4,0,0.7-0.3,0.7-0.7s-0.3-0.7-0.7-0.7
			h-8.1c-0.4,0-0.7,0.3-0.7,0.7s0.3,0.7,0.7,0.7h1.8c-0.8,0.6-1.4,1.5-1.4,2.7c0,1.7,1.8,2,3.3,2.3c2.2,0.5,3.6,0.8,3.6,2.6
			c0,0.7-0.3,1.3-0.8,1.6c-0.5,0.4-1.2,0.6-2.1,0.6c-1.7,0-3.2-0.8-3.2-1.7c0-0.4-0.3-0.7-0.7-0.7c-0.4,0-0.7,0.3-0.7,0.7
			c0,2,2.4,3.2,4.7,3.2c1.1,0,2.2-0.3,2.9-0.8c0.9-0.7,1.4-1.6,1.4-2.8C240.4,30.8,237.5,30.2,235.6,29.8z"/>
	</g>
</g>
<g>
	<g>
		<path fill="#CD1F41" d="M537.8,29.3c1.7,0,3-1.4,3-3s-1.4-3-3-3c-1.7,0-3,1.4-3,3S536.1,29.3,537.8,29.3z M537.8,24.8
			c0.9,0,1.5,0.7,1.5,1.5s-0.7,1.5-1.5,1.5c-0.9,0-1.5-0.7-1.5-1.5S536.9,24.8,537.8,24.8z"/>
		<path fill="#CD1F41" d="M545.4,25.4c1.7,0,3-1.4,3-3s-1.4-3-3-3s-3,1.4-3,3S543.8,25.4,545.4,25.4z M545.4,20.8
			c0.9,0,1.5,0.7,1.5,1.5s-0.7,1.5-1.5,1.5c-0.9,0-1.5-0.7-1.5-1.5S544.6,20.8,545.4,20.8z"/>
		<path fill="#CD1F41" d="M561.7,29.2c-0.3-0.3-0.7-0.3-1,0c-2.1,2.1-4.8,3.2-7.8,3.2c-2.8,0-5.5-1.1-7.6-3c1.2-0.7,2.3-1.5,3.3-2.5
			c0.3-0.3,0.3-0.7,0-1c-0.3-0.3-0.7-0.3-1,0c-5.4,5.4-14.3,5.4-19.7,0c-0.3-0.3-0.7-0.3-1,0c-0.3,0.3-0.3,0.7,0,1
			c2.2,2.2,4.9,3.6,7.8,4.2l-2.2,14.1c-0.1,0.4,0.2,0.8,0.6,0.8c0,0,0.1,0,0.1,0c0.4,0,0.7-0.3,0.7-0.6l2.2-14.1
			c0.5,0.1,1.1,0.1,1.6,0.1c0.5,0,1.1,0,1.6-0.1l2.2,14.1c0.1,0.4,0.4,0.6,0.7,0.6c0,0,0.1,0,0.1,0c0.4-0.1,0.7-0.4,0.6-0.8
			L540.9,31c1.1-0.2,2.1-0.5,3.1-1c0,0.1,0.1,0.1,0.1,0.2c1.7,1.7,3.9,2.9,6.2,3.4l-1.8,11.6c-0.1,0.4,0.2,0.8,0.6,0.8
			c0,0,0.1,0,0.1,0c0.4,0,0.7-0.3,0.7-0.6l1.8-11.6c0.4,0,0.7,0.1,1.1,0.1s0.8,0,1.1-0.1l1.8,11.6c0.1,0.4,0.4,0.6,0.7,0.6
			c0,0,0.1,0,0.1,0c0.4-0.1,0.7-0.4,0.6-0.8l-1.8-11.6c2.3-0.5,4.5-1.6,6.2-3.4C562,29.9,562,29.5,561.7,29.2z"/>
		<path fill="#CD1F41" d="M552.9,31.5c1.7,0,3-1.4,3-3c0-1.7-1.4-3-3-3c-1.7,0-3,1.4-3,3C549.9,30.1,551.3,31.5,552.9,31.5z
			 M552.9,26.9c0.9,0,1.5,0.7,1.5,1.5s-0.7,1.5-1.5,1.5c-0.9,0-1.5-0.7-1.5-1.5S552.1,26.9,552.9,26.9z"/>
	</g>
</g>
<g>
	<g>
		<path fill="#F15D24" d="M663.6,30.9c0,0,0-0.1,0-0.1c-0.7-5.4-4.3-9.8-9.1-11.8c-0.1,0-0.1-0.1-0.2-0.1c-1.6-0.6-3.4-1-5.3-1
			c-3,0-5.8,0.9-8.1,2.4c0,0-0.1,0.1-0.1,0.1c-3.9,2.6-6.5,7.1-6.5,12.2c0,4.4,1.9,8.3,4.9,11c0,0,0.1,0.1,0.1,0.1
			c2.6,2.3,6,3.7,9.7,3.7c8.1,0,14.7-6.6,14.7-14.7C663.7,32.1,663.7,31.5,663.6,30.9z M635.7,32.7c0-4.4,2.2-8.4,5.6-10.8l3.1,1.3
			l-1.7,4.1l-5.9,3c-0.3,0.1-0.4,0.4-0.4,0.7c0,0.3,0.2,0.5,0.5,0.6l4.8,1.6l1.1,3.9l-2.1,2.3c-0.3,0.3-0.3,0.8,0,1l2.5,2.4
			l-3.2-0.4C637.4,40,635.7,36.5,635.7,32.7z M642.6,44.3l3.8,0.5c0,0,0.1,0,0.1,0c0.3,0,0.6-0.2,0.7-0.5c0.1-0.3-0.1-0.7-0.4-0.9
			l-1.8-0.9l-2.7-2.6l1.9-2c0.2-0.2,0.2-0.4,0.2-0.7l-1.3-4.7c-0.1-0.2-0.2-0.4-0.5-0.5l-3.5-1.2l4.6-2.3c0.2-0.1,0.3-0.2,0.3-0.4
			l2.1-5c0.1-0.2,0.1-0.4,0-0.6c-0.1-0.2-0.2-0.3-0.4-0.4l-2.8-1.2c1.8-1,3.9-1.5,6.1-1.5c1.3,0,2.5,0.2,3.6,0.5l-0.7,0.6
			c-0.2,0.1-0.3,0.4-0.3,0.6c0,0.2,0.1,0.4,0.3,0.6l2.7,2.1l-3.3,5.4l-2.5,0.9c-0.2,0.1-0.4,0.2-0.5,0.4s-0.1,0.4,0.1,0.6l1.2,2
			c0.1,0.2,0.4,0.3,0.6,0.3h2.1c0.2,0,0.4-0.1,0.6-0.3l1-1.2l0.6,0.5l-3.1,2.6c-0.2,0.2-0.3,0.4-0.3,0.7l0.5,3.2
			c0.1,0.4,0.4,0.6,0.7,0.6h1.5l1.1,2.4V44c0,0.2,0.1,0.3,0.1,0.4c-1.8,0.9-3.9,1.5-6,1.5C646.7,45.9,644.5,45.3,642.6,44.3z
			 M656.3,43.7v-1.9c0-0.1,0-0.2-0.1-0.3l-1.3-3c-0.1-0.3-0.4-0.4-0.7-0.4h-1.4l-0.3-2.1l3.5-2.8c0.2-0.1,0.3-0.3,0.3-0.6
			c0-0.2-0.1-0.4-0.3-0.6l-1.9-1.6c-0.1-0.1-0.3-0.2-0.5-0.2c-0.2,0-0.4,0.1-0.5,0.3l-1.2,1.5h-1.3l-0.5-0.8l1.9-0.6
			c0.2-0.1,0.3-0.2,0.4-0.3l3.8-6.2c0.2-0.3,0.1-0.7-0.2-1l-2.5-1.9l0.6-0.5c4.1,1.8,7.1,5.5,7.8,10l-3.6,1.5
			c-0.2,0.1-0.4,0.3-0.4,0.5c0,0.2,0,0.5,0.2,0.7l1.9,1.8l-1,4.2c-0.1,0.4,0.2,0.8,0.5,0.9c0.1,0,0.1,0,0.2,0c0,0,0,0,0.1,0
			C659,41.5,657.8,42.7,656.3,43.7z M660.8,38.6l0.9-3.7c0.1-0.3,0-0.5-0.2-0.7l-1.4-1.3l2.1-0.9c0,0.2,0,0.4,0,0.7
			C662.2,34.8,661.7,36.8,660.8,38.6z"/>
		<path fill="#F15D24" d="M650.7,26.9c0.1,0.1,0.3,0.1,0.4,0.1c0.2,0,0.4-0.1,0.6-0.3L653,25c0.2-0.3,0.2-0.8-0.2-1
			c-0.3-0.2-0.8-0.2-1,0.2l-1.3,1.8C650.3,26.2,650.4,26.7,650.7,26.9z"/>
	</g>
</g>
<g>
	<g>
		<path fill="#05A27A" d="M146.6,29.7h-27.8c-0.4,0-0.7-0.3-0.7-0.6c0-0.4,0.2-0.7,0.5-0.8l13.9-3.7c0.1,0,0.3,0,0.4,0l13.9,3.7
			c0.4,0.1,0.6,0.4,0.5,0.8C147.2,29.5,146.9,29.7,146.6,29.7z M124.4,28.3h16.5l-8.3-2.2L124.4,28.3z"/>
	</g>
	<g>
		<path fill="#05A27A" d="M145.3,32h-25.9c-0.4,0-0.7-0.3-0.7-0.7c0-0.4,0.3-0.7,0.7-0.7h25.9c0.4,0,0.7,0.3,0.7,0.7
			C146.1,31.7,145.7,32,145.3,32z"/>
	</g>
	<g>
		<g>
			<path fill="#05A27A" d="M120.1,47.8c-0.4,0-0.7-0.3-0.7-0.7V33.4c0-0.4,0.3-0.7,0.7-0.7c0.4,0,0.7,0.3,0.7,0.7v13.7
				C120.8,47.5,120.5,47.8,120.1,47.8z"/>
		</g>
		<g>
			<path fill="#05A27A" d="M125,47.8c-0.4,0-0.7-0.3-0.7-0.7V33.4c0-0.4,0.3-0.7,0.7-0.7s0.7,0.3,0.7,0.7v13.7
				C125.7,47.5,125.4,47.8,125,47.8z"/>
		</g>
		<g>
			<path fill="#05A27A" d="M129.9,47.8c-0.4,0-0.7-0.3-0.7-0.7V33.4c0-0.4,0.3-0.7,0.7-0.7c0.4,0,0.7,0.3,0.7,0.7v13.7
				C130.7,47.5,130.3,47.8,129.9,47.8z"/>
		</g>
		<g>
			<path fill="#05A27A" d="M134.9,47.8c-0.4,0-0.7-0.3-0.7-0.7V33.4c0-0.4,0.3-0.7,0.7-0.7s0.7,0.3,0.7,0.7v13.7
				C135.6,47.5,135.3,47.8,134.9,47.8z"/>
		</g>
		<g>
			<path fill="#05A27A" d="M139.8,47.8c-0.4,0-0.7-0.3-0.7-0.7V33.4c0-0.4,0.3-0.7,0.7-0.7s0.7,0.3,0.7,0.7v13.7
				C140.5,47.5,140.2,47.8,139.8,47.8z"/>
		</g>
		<g>
			<path fill="#05A27A" d="M144.7,47.8c-0.4,0-0.7-0.3-0.7-0.7V33.4c0-0.4,0.3-0.7,0.7-0.7c0.4,0,0.7,0.3,0.7,0.7v13.7
				C145.5,47.5,145.1,47.8,144.7,47.8z"/>
		</g>
	</g>
	<g>
		<path fill="#05A27A" d="M132.4,41.3c-0.8,0-1.5-0.7-1.5-1.5c0-0.8,0.7-1.5,1.5-1.5c0.8,0,1.5,0.7,1.5,1.5
			C133.9,40.6,133.2,41.3,132.4,41.3z M132.4,39.3c-0.3,0-0.5,0.2-0.5,0.5c0,0.3,0.2,0.5,0.5,0.5c0.3,0,0.5-0.2,0.5-0.5
			C132.9,39.6,132.7,39.3,132.4,39.3z"/>
	</g>
	<g>
		<path fill="#05A27A" d="M120.1,26.8c-0.3,0-0.5-0.2-0.5-0.5v-2.7c0-0.3,0.2-0.5,0.5-0.5c0.3,0,0.5,0.2,0.5,0.5v2.7
			C120.5,26.6,120.3,26.8,120.1,26.8z"/>
	</g>
	<g>
		<path fill="#05A27A" d="M132.4,23.7c-0.3,0-0.5-0.2-0.5-0.5v-2.4c0-0.3,0.2-0.5,0.5-0.5c0.3,0,0.5,0.2,0.5,0.5v2.4
			C132.9,23.5,132.7,23.7,132.4,23.7z"/>
	</g>
	<g>
		<path fill="#05A27A" d="M144.7,26.8c-0.3,0-0.5-0.2-0.5-0.5v-2.7c0-0.3,0.2-0.5,0.5-0.5c0.3,0,0.5,0.2,0.5,0.5v2.7
			C145.2,26.6,145,26.8,144.7,26.8z"/>
	</g>
	<g>
		<path fill="#05A27A" d="M135.5,19.1h-1.9c-0.3,0-0.5-0.2-0.6-0.4c0-0.1,0-0.1,0-0.2h-1.2v-1h1.6c0.3,0,0.5,0.2,0.6,0.4
			c0,0.1,0,0.1,0,0.2h1.5V19.1z"/>
	</g>
	<g>
		<path fill="#05A27A" d="M135.5,19.8h-1.9c-0.3,0-0.5-0.2-0.6-0.4c0-0.1,0-0.1,0-0.2h-1.2v-1h1.6c0.3,0,0.5,0.2,0.6,0.4
			c0,0.1,0,0.1,0,0.2h1.5V19.8z"/>
	</g>
</g>
</svg>
