<?xml version="1.0" encoding="utf-8"?>
<!-- Generator: Adobe Illustrator 18.1.1, SVG Export Plug-In . SVG Version: 6.00 Build 0)  -->
<!DOCTYPE svg PUBLIC "-//W3C//DTD SVG 1.1 Tiny//EN" "http://www.w3.org/Graphics/SVG/1.1/DTD/svg11-tiny.dtd">
<svg version="1.1" baseProfile="tiny" xmlns="http://www.w3.org/2000/svg" xmlns:xlink="http://www.w3.org/1999/xlink" x="0px"
	 y="0px" viewBox="0 0 103.9 55" xml:space="preserve">
<g id="Layer_1">
</g>
<g id="Color_Menu_Option" display="none">
</g>
<g id="Single_Menu">
	<g>
		<polygon fill="#063342" points="12.5,29.3 11.1,30.7 9.7,29.3 11.1,27.9 		"/>
		<polygon fill="#063342" points="17.5,29.3 16.1,30.7 14.7,29.3 16.1,27.9 		"/>
		<polygon fill="#063342" points="22.5,29.3 21.1,30.7 19.7,29.3 21.1,27.9 		"/>
		<polygon fill="#063342" points="27.5,29.3 26.1,30.7 24.6,29.3 26.1,27.9 		"/>
		<polygon fill="#063342" points="32.5,29.3 31,30.7 29.6,29.3 31,27.9 		"/>
		<polygon fill="#063342" points="37.4,29.3 36,30.7 34.6,29.3 36,27.9 		"/>
		<polygon fill="#063342" points="42.4,29.3 41,30.7 39.6,29.3 41,27.9 		"/>
		<path fill="#958864" d="M10.4,23.4v-1.1l2.4-0.3c0.9-0.1,1-0.2,1-0.9v-9.5c0-0.5-0.1-0.6-0.3-0.6c-0.2,0-0.4,0.1-0.9,0.3l-2.3,0.9
			V11l6.4-4v14.1c0,0.2,0,0.4,0.1,0.5c0.1,0.2,0.4,0.4,1.1,0.5l2.2,0.3v1.1H10.4z"/>
		<path fill="#958864" d="M27.1,23.7c-2.4,0-3.7-0.8-3.7-2.2c0-0.2,0-0.4,0.1-0.7c1.3,0.6,2.6,0.9,3.6,0.9c3,0,4.7-2,5.1-5.9
			c-1.2,1.2-2.8,1.8-4.3,1.8c-2.5,0-4.5-1.9-4.5-4.5c0-3,2.7-5.3,6-5.3c3.5,0,5.6,2.6,5.6,6.9C35.1,20,31.8,23.7,27.1,23.7
			 M28.9,9.6c-1.4,0-2.6,1.2-2.6,2.8c0,2,1.6,3.5,3.6,3.5c0.8,0,1.5-0.2,2.3-0.6C32.2,11.8,30.9,9.6,28.9,9.6"/>
		<path fill="#958864" d="M20.7,50.5H8.9c1.5-1.7,1.9-2.2,4-4.8c3.2-3.9,4-5.3,4-6.6c0-1-0.8-1.7-2-1.7c-0.7,0-1.3,0.2-2,0.6
			c-0.9,0.6-1.6,1.2-2.8,2.7v-0.5c0-1.2,0.3-2.3,1-3.1c1-1.2,2.8-2,4.7-2c2.5,0,4.1,1.2,4.1,3.2c0,0.9-0.4,1.9-1,2.9
			c-0.7,1-1.6,2.1-3,3.6L12.7,48h6.4c0.9,0,1.1-0.2,1.5-1.3h1L20.7,50.5z"/>
		<path fill="#958864" d="M29.3,50.8c-3.6,0-5.6-2.7-5.6-7.6c0-4.9,2.7-8.3,6.6-8.3c3.4,0,5.5,2.8,5.5,7.3
			C35.7,47.3,33.1,50.8,29.3,50.8 M29.8,36.6c-1.9,0-3,2.3-3,6.1c0,3.8,1.2,6.4,3,6.4c1.8,0,3-2.4,3-6.1
			C32.7,39.2,31.5,36.6,29.8,36.6"/>
		<path fill="#958864" d="M40.1,50.5v-2.2l6.9-1.1c1.4-0.2,2-0.9,2-2.9V15.7c0-1.3-0.5-1.8-1.4-1.8c-0.7,0-1.6,0.3-3.3,0.9l-4.7,1.9
			v-2.6L55.7,3.6v40.4c0,2.2,0.4,2.8,2,3.1l6.7,1.1v2.2H40.1z"/>
		<path fill="#958864" d="M78.7,51.4c-9.4,0-15.1-7.4-15.1-19.7c0-15.5,8.9-26.2,21.7-26.2c3.1,0,5.7,0.6,7.5,1.7
			c1.3,0.8,2,2.2,2,4.1c0,0.3,0,0.7-0.1,1.4c-3.3-1.6-6.5-2.4-9.5-2.4c-3.8,0-7.8,1.6-10.2,4.3C71.9,18,70.5,22,70,29.8
			c4.5-4.3,8.6-6.3,13.1-6.3c6.8,0,11.9,5.5,11.9,12.7C94.9,44.6,87.7,51.4,78.7,51.4 M78.9,28.7c-2.9,0-5.2,0.7-8.9,2.6
			c0.5,9.9,4.4,15.8,10.5,15.8c4.5,0,7.9-3.7,7.9-8.6C88.4,32.7,84.5,28.7,78.9,28.7"/>
	</g>
</g>
<g id="Overlay" display="none">
</g>
<g id="Hover_State" display="none">
</g>
<g id="Grid">
</g>
</svg>
