<?xml version="1.0" encoding="utf-8"?>
<!-- Generator: Adobe Illustrator 18.1.1, SVG Export Plug-In . SVG Version: 6.00 Build 0)  -->
<!DOCTYPE svg PUBLIC "-//W3C//DTD SVG 1.1 Tiny//EN" "http://www.w3.org/Graphics/SVG/1.1/DTD/svg11-tiny.dtd">
<svg version="1.1" baseProfile="tiny" id="Layer_1" xmlns="http://www.w3.org/2000/svg" xmlns:xlink="http://www.w3.org/1999/xlink"
	 x="0px" y="0px" viewBox="0 0 104 55" xml:space="preserve">
<g>
	<polygon fill="#958864" points="13.6,29.5 12.2,30.9 10.8,29.5 12.2,28.1 	"/>
	<polygon fill="#958864" points="18.6,29.5 17.2,30.9 15.8,29.5 17.2,28.1 	"/>
	<polygon fill="#958864" points="23.6,29.5 22.2,30.9 20.8,29.5 22.2,28.1 	"/>
	<polygon fill="#958864" points="28.6,29.5 27.2,30.9 25.7,29.5 27.2,28.1 	"/>
	<polygon fill="#958864" points="33.6,29.5 32.1,30.9 30.7,29.5 32.1,28.1 	"/>
	<polygon fill="#958864" points="38.5,29.5 37.1,30.9 35.7,29.5 37.1,28.1 	"/>
	<polygon fill="#958864" points="43.5,29.5 42.1,30.9 40.7,29.5 42.1,28.1 	"/>
	<path fill="#FFFFFF" d="M11.5,23.6v-1.1l2.4-0.3c0.9-0.1,1-0.2,1-0.9v-9.5c0-0.5-0.1-0.6-0.3-0.6s-0.4,0.1-0.9,0.3l-2.3,0.9v-1.2
		l6.4-4v14.1c0,0.2,0,0.4,0.1,0.5c0.1,0.2,0.4,0.4,1.1,0.5l2.2,0.3v1.1h-9.7V23.6z"/>
	<path fill="#FFFFFF" d="M28.2,23.9c-2.4,0-3.7-0.8-3.7-2.2c0-0.2,0-0.4,0.1-0.7c1.3,0.6,2.6,0.9,3.6,0.9c3,0,4.7-2,5.1-5.9
		c-1.2,1.2-2.8,1.8-4.3,1.8c-2.5,0-4.5-1.9-4.5-4.5c0-3,2.7-5.3,6-5.3c3.5,0,5.6,2.6,5.6,6.9C36.2,20.2,32.9,23.9,28.2,23.9 M30,9.8
		c-1.4,0-2.6,1.2-2.6,2.8c0,2,1.6,3.5,3.6,3.5c0.8,0,1.5-0.2,2.3-0.6C33.3,12,32,9.8,30,9.8"/>
	<path fill="#FFFFFF" d="M21.8,50.7H10c1.5-1.7,1.9-2.2,4-4.8c3.2-3.9,4-5.3,4-6.6c0-1-0.8-1.7-2-1.7c-0.7,0-1.3,0.2-2,0.6
		c-0.9,0.6-1.6,1.2-2.8,2.7v-0.5c0-1.2,0.3-2.3,1-3.1c1-1.2,2.8-2,4.7-2c2.5,0,4.1,1.2,4.1,3.2c0,0.9-0.4,1.9-1,2.9
		c-0.7,1-1.6,2.1-3,3.6l-3.2,3.2h6.4c0.9,0,1.1-0.2,1.5-1.3h1L21.8,50.7z"/>
	<path fill="#FFFFFF" d="M30.4,51c-3.6,0-5.6-2.7-5.6-7.6s2.7-8.3,6.6-8.3c3.4,0,5.5,2.8,5.5,7.3C36.8,47.5,34.2,51,30.4,51
		 M30.9,36.8c-1.9,0-3,2.3-3,6.1s1.2,6.4,3,6.4c1.8,0,3-2.4,3-6.1C33.8,39.4,32.6,36.8,30.9,36.8"/>
	<path fill="#FFFFFF" d="M41.2,50.7v-2.2l6.9-1.1c1.4-0.2,2-0.9,2-2.9V15.9c0-1.3-0.5-1.8-1.4-1.8c-0.7,0-1.6,0.3-3.3,0.9l-4.7,1.9
		v-2.6L56.8,3.8v40.4c0,2.2,0.4,2.8,2,3.1l6.7,1.1v2.2L41.2,50.7L41.2,50.7z"/>
	<path fill="#FFFFFF" d="M79.8,51.6c-9.4,0-15.1-7.4-15.1-19.7c0-15.5,8.9-26.2,21.7-26.2c3.1,0,5.7,0.6,7.5,1.7
		c1.3,0.8,2,2.2,2,4.1c0,0.3,0,0.7-0.1,1.4c-3.3-1.6-6.5-2.4-9.5-2.4c-3.8,0-7.8,1.6-10.2,4.3c-3.1,3.4-4.5,7.4-5,15.2
		c4.5-4.3,8.6-6.3,13.1-6.3c6.8,0,11.9,5.5,11.9,12.7C95.9,44.8,88.7,51.6,79.8,51.6 M79.9,28.9c-2.9,0-5.2,0.7-8.9,2.6
		c0.5,9.9,4.4,15.8,10.5,15.8c4.5,0,7.9-3.7,7.9-8.6C89.4,32.9,85.5,28.9,79.9,28.9"/>
</g>
</svg>
