<?xml version="1.0" encoding="utf-8"?>
<!-- Generator: Adobe Illustrator 18.1.1, SVG Export Plug-In . SVG Version: 6.00 Build 0)  -->
<!DOCTYPE svg PUBLIC "-//W3C//DTD SVG 1.1 Tiny//EN" "http://www.w3.org/Graphics/SVG/1.1/DTD/svg11-tiny.dtd">
<svg version="1.1" baseProfile="tiny" xmlns="http://www.w3.org/2000/svg" xmlns:xlink="http://www.w3.org/1999/xlink" x="0px"
	 y="0px" viewBox="0 0 54.5 361.2" xml:space="preserve">
<g id="Layer_1">
	<g>
		<path fill="#9E8C5D" d="M21.2,7.8c-0.6,0.3-1.3,0.5-1.9,0.5c0.7-0.4,1.2-1.1,1.5-1.9c-0.7,0.4-1.4,0.7-2.1,0.8
			c-0.6-0.7-1.5-1.1-2.5-1.1c-1.9,0-3.4,1.5-3.4,3.4c0,0.3,0,0.5,0.1,0.8c-2.8-0.1-5.3-1.5-7-3.5C5.5,7.3,5.4,7.9,5.4,8.5
			c0,1.2,0.6,2.2,1.5,2.8c-0.6,0-1.1-0.2-1.5-0.4c0,0,0,0,0,0c0,1.6,1.2,3,2.7,3.3c-0.3,0.1-0.6,0.1-0.9,0.1c-0.2,0-0.4,0-0.6-0.1
			c0.4,1.3,1.7,2.3,3.2,2.4c-1.2,0.9-2.6,1.4-4.2,1.4c-0.3,0-0.5,0-0.8,0c1.5,1,3.3,1.5,5.2,1.5c6.2,0,9.6-5.2,9.6-9.6
			c0-0.1,0-0.3,0-0.4C20.1,9.1,20.7,8.5,21.2,7.8z"/>
		<path fill="#9E8C5D" d="M43.1,22.3v-8.8h-2.3v-3.2h2.3c0,0,0-1.3,0-2.7c0-2.1,1.4-4.1,4.6-4.1c1.3,0,2.2,0.1,2.2,0.1l-0.1,3
			c0,0-1,0-2,0c-1.1,0-1.3,0.5-1.3,1.4c0,0.7,0-1.5,0,2.3h3.5l-0.2,3.2h-3.3v8.8H43.1z"/>
	</g>
	<g>
		<path fill="#063342" d="M21.2,44.3c-0.6,0.3-1.3,0.5-1.9,0.5c0.7-0.4,1.2-1.1,1.5-1.9c-0.7,0.4-1.4,0.7-2.1,0.8
			c-0.6-0.7-1.5-1.1-2.5-1.1c-1.9,0-3.4,1.5-3.4,3.4c0,0.3,0,0.5,0.1,0.8c-2.8-0.1-5.3-1.5-7-3.5c-0.3,0.5-0.5,1.1-0.5,1.7
			c0,1.2,0.6,2.2,1.5,2.8c-0.6,0-1.1-0.2-1.5-0.4c0,0,0,0,0,0c0,1.6,1.2,3,2.7,3.3c-0.3,0.1-0.6,0.1-0.9,0.1c-0.2,0-0.4,0-0.6-0.1
			c0.4,1.3,1.7,2.3,3.2,2.4c-1.2,0.9-2.6,1.4-4.2,1.4c-0.3,0-0.5,0-0.8,0c1.5,1,3.3,1.5,5.2,1.5c6.2,0,9.6-5.2,9.6-9.6
			c0-0.1,0-0.3,0-0.4C20.1,45.6,20.7,45,21.2,44.3z"/>
		<path fill="#063342" d="M43.1,58.9V50h-2.3v-3.2h2.3c0,0,0-1.3,0-2.7c0-2.1,1.4-4.1,4.6-4.1c1.3,0,2.2,0.1,2.2,0.1l-0.1,3
			c0,0-1,0-2,0c-1.1,0-1.3,0.5-1.3,1.4c0,0.7,0-1.5,0,2.3h3.5L49.8,50h-3.3v8.8H43.1z"/>
	</g>
	<g>
		<path fill="#A9AA36" d="M21.2,80.8c-0.6,0.3-1.3,0.5-1.9,0.5c0.7-0.4,1.2-1.1,1.5-1.9c-0.7,0.4-1.4,0.7-2.1,0.8
			c-0.6-0.7-1.5-1.1-2.5-1.1c-1.9,0-3.4,1.5-3.4,3.4c0,0.3,0,0.5,0.1,0.8c-2.8-0.1-5.3-1.5-7-3.5c-0.3,0.5-0.5,1.1-0.5,1.7
			c0,1.2,0.6,2.2,1.5,2.8c-0.6,0-1.1-0.2-1.5-0.4c0,0,0,0,0,0c0,1.6,1.2,3,2.7,3.3c-0.3,0.1-0.6,0.1-0.9,0.1c-0.2,0-0.4,0-0.6-0.1
			c0.4,1.3,1.7,2.3,3.2,2.4c-1.2,0.9-2.6,1.4-4.2,1.4c-0.3,0-0.5,0-0.8,0c1.5,1,3.3,1.5,5.2,1.5c6.2,0,9.6-5.2,9.6-9.6
			c0-0.1,0-0.3,0-0.4C20.1,82.1,20.7,81.5,21.2,80.8z"/>
		<path fill="#A9AA36" d="M43.1,95.4v-8.8h-2.3v-3.2h2.3c0,0,0-1.3,0-2.7c0-2.1,1.4-4.1,4.6-4.1c1.3,0,2.2,0.1,2.2,0.1l-0.1,3
			c0,0-1,0-2,0c-1.1,0-1.3,0.5-1.3,1.4c0,0.7,0-1.5,0,2.3h3.5l-0.2,3.2h-3.3v8.8H43.1z"/>
	</g>
	<g>
		<path fill="#009474" d="M21.2,117.4c-0.6,0.3-1.3,0.5-1.9,0.5c0.7-0.4,1.2-1.1,1.5-1.9c-0.7,0.4-1.4,0.7-2.1,0.8
			c-0.6-0.7-1.5-1.1-2.5-1.1c-1.9,0-3.4,1.5-3.4,3.4c0,0.3,0,0.5,0.1,0.8c-2.8-0.1-5.3-1.5-7-3.5c-0.3,0.5-0.5,1.1-0.5,1.7
			c0,1.2,0.6,2.2,1.5,2.8c-0.6,0-1.1-0.2-1.5-0.4c0,0,0,0,0,0c0,1.6,1.2,3,2.7,3.3c-0.3,0.1-0.6,0.1-0.9,0.1c-0.2,0-0.4,0-0.6-0.1
			c0.4,1.3,1.7,2.3,3.2,2.4c-1.2,0.9-2.6,1.4-4.2,1.4c-0.3,0-0.5,0-0.8,0c1.5,1,3.3,1.5,5.2,1.5c6.2,0,9.6-5.2,9.6-9.6
			c0-0.1,0-0.3,0-0.4C20.1,118.6,20.7,118,21.2,117.4z"/>
		<path fill="#009474" d="M43.1,131.9v-8.8h-2.3v-3.2h2.3c0,0,0-1.3,0-2.7c0-2.1,1.4-4.1,4.6-4.1c1.3,0,2.2,0.1,2.2,0.1l-0.1,3
			c0,0-1,0-2,0c-1.1,0-1.3,0.5-1.3,1.4c0,0.7,0-1.5,0,2.3h3.5l-0.2,3.2h-3.3v8.8H43.1z"/>
	</g>
	<g>
		<path fill="#009CBC" d="M21.2,153.9c-0.6,0.3-1.3,0.5-1.9,0.5c0.7-0.4,1.2-1.1,1.5-1.9c-0.7,0.4-1.4,0.7-2.1,0.8
			c-0.6-0.7-1.5-1.1-2.5-1.1c-1.9,0-3.4,1.5-3.4,3.4c0,0.3,0,0.5,0.1,0.8c-2.8-0.1-5.3-1.5-7-3.5c-0.3,0.5-0.5,1.1-0.5,1.7
			c0,1.2,0.6,2.2,1.5,2.8c-0.6,0-1.1-0.2-1.5-0.4c0,0,0,0,0,0c0,1.6,1.2,3,2.7,3.3c-0.3,0.1-0.6,0.1-0.9,0.1c-0.2,0-0.4,0-0.6-0.1
			c0.4,1.3,1.7,2.3,3.2,2.4c-1.2,0.9-2.6,1.4-4.2,1.4c-0.3,0-0.5,0-0.8,0c1.5,1,3.3,1.5,5.2,1.5c6.2,0,9.6-5.2,9.6-9.6
			c0-0.1,0-0.3,0-0.4C20.1,155.2,20.7,154.6,21.2,153.9z"/>
		<path fill="#009CBC" d="M43.1,168.4v-8.8h-2.3v-3.2h2.3c0,0,0-1.3,0-2.7c0-2.1,1.4-4.1,4.6-4.1c1.3,0,2.2,0.1,2.2,0.1l-0.1,3
			c0,0-1,0-2,0c-1.1,0-1.3,0.5-1.3,1.4c0,0.7,0-1.5,0,2.3h3.5l-0.2,3.2h-3.3v8.8H43.1z"/>
	</g>
	<g>
		<path fill="#C55EA3" d="M21.2,190.4c-0.6,0.3-1.3,0.5-1.9,0.5c0.7-0.4,1.2-1.1,1.5-1.9c-0.7,0.4-1.4,0.7-2.1,0.8
			c-0.6-0.7-1.5-1.1-2.5-1.1c-1.9,0-3.4,1.5-3.4,3.4c0,0.3,0,0.5,0.1,0.8c-2.8-0.1-5.3-1.5-7-3.5c-0.3,0.5-0.5,1.1-0.5,1.7
			c0,1.2,0.6,2.2,1.5,2.8c-0.6,0-1.1-0.2-1.5-0.4c0,0,0,0,0,0c0,1.6,1.2,3,2.7,3.3C7.8,197,7.5,197,7.2,197c-0.2,0-0.4,0-0.6-0.1
			c0.4,1.3,1.7,2.3,3.2,2.4c-1.2,0.9-2.6,1.4-4.2,1.4c-0.3,0-0.5,0-0.8,0c1.5,1,3.3,1.5,5.2,1.5c6.2,0,9.6-5.2,9.6-9.6
			c0-0.1,0-0.3,0-0.4C20.1,191.7,20.7,191.1,21.2,190.4z"/>
		<path fill="#C55EA3" d="M43.1,204.9v-8.8h-2.3v-3.2h2.3c0,0,0-1.3,0-2.7c0-2.1,1.4-4.1,4.6-4.1c1.3,0,2.2,0.1,2.2,0.1l-0.1,3
			c0,0-1,0-2,0c-1.1,0-1.3,0.5-1.3,1.4c0,0.7,0-1.5,0,2.3h3.5l-0.2,3.2h-3.3v8.8H43.1z"/>
	</g>
	<g>
		<path fill="#E01687" d="M21.2,226.9c-0.6,0.3-1.3,0.5-1.9,0.5c0.7-0.4,1.2-1.1,1.5-1.9c-0.7,0.4-1.4,0.7-2.1,0.8
			c-0.6-0.7-1.5-1.1-2.5-1.1c-1.9,0-3.4,1.5-3.4,3.4c0,0.3,0,0.5,0.1,0.8c-2.8-0.1-5.3-1.5-7-3.5c-0.3,0.5-0.5,1.1-0.5,1.7
			c0,1.2,0.6,2.2,1.5,2.8c-0.6,0-1.1-0.2-1.5-0.4c0,0,0,0,0,0c0,1.6,1.2,3,2.7,3.3c-0.3,0.1-0.6,0.1-0.9,0.1c-0.2,0-0.4,0-0.6-0.1
			c0.4,1.3,1.7,2.3,3.2,2.4c-1.2,0.9-2.6,1.4-4.2,1.4c-0.3,0-0.5,0-0.8,0c1.5,1,3.3,1.5,5.2,1.5c6.2,0,9.6-5.2,9.6-9.6
			c0-0.1,0-0.3,0-0.4C20.1,228.2,20.7,227.6,21.2,226.9z"/>
		<path fill="#E01687" d="M43.1,241.5v-8.8h-2.3v-3.2h2.3c0,0,0-1.3,0-2.7c0-2.1,1.4-4.1,4.6-4.1c1.3,0,2.2,0.1,2.2,0.1l-0.1,3
			c0,0-1,0-2,0c-1.1,0-1.3,0.5-1.3,1.4c0,0.7,0-1.5,0,2.3h3.5l-0.2,3.2h-3.3v8.8H43.1z"/>
	</g>
	<g>
		<path fill="#CD1F40" d="M21.2,263.4c-0.6,0.3-1.3,0.5-1.9,0.5c0.7-0.4,1.2-1.1,1.5-1.9c-0.7,0.4-1.4,0.7-2.1,0.8
			c-0.6-0.7-1.5-1.1-2.5-1.1c-1.9,0-3.4,1.5-3.4,3.4c0,0.3,0,0.5,0.1,0.8c-2.8-0.1-5.3-1.5-7-3.5c-0.3,0.5-0.5,1.1-0.5,1.7
			c0,1.2,0.6,2.2,1.5,2.8c-0.6,0-1.1-0.2-1.5-0.4c0,0,0,0,0,0c0,1.6,1.2,3,2.7,3.3C7.8,270,7.5,270,7.2,270c-0.2,0-0.4,0-0.6-0.1
			c0.4,1.3,1.7,2.3,3.2,2.4c-1.2,0.9-2.6,1.4-4.2,1.4c-0.3,0-0.5,0-0.8,0c1.5,1,3.3,1.5,5.2,1.5c6.2,0,9.6-5.2,9.6-9.6
			c0-0.1,0-0.3,0-0.4C20.1,264.7,20.7,264.1,21.2,263.4z"/>
		<path fill="#CD1F40" d="M43.1,278v-8.8h-2.3V266h2.3c0,0,0-1.3,0-2.7c0-2.1,1.4-4.1,4.6-4.1c1.3,0,2.2,0.1,2.2,0.1l-0.1,3
			c0,0-1,0-2,0c-1.1,0-1.3,0.5-1.3,1.4c0,0.7,0-1.5,0,2.3h3.5l-0.2,3.2h-3.3v8.8H43.1z"/>
	</g>
	<g>
		<path fill="#F05B22" d="M21.2,300c-0.6,0.3-1.3,0.5-1.9,0.5c0.7-0.4,1.2-1.1,1.5-1.9c-0.7,0.4-1.4,0.7-2.1,0.8
			c-0.6-0.7-1.5-1.1-2.5-1.1c-1.9,0-3.4,1.5-3.4,3.4c0,0.3,0,0.5,0.1,0.8c-2.8-0.1-5.3-1.5-7-3.5c-0.3,0.5-0.5,1.1-0.5,1.7
			c0,1.2,0.6,2.2,1.5,2.8c-0.6,0-1.1-0.2-1.5-0.4c0,0,0,0,0,0c0,1.6,1.2,3,2.7,3.3c-0.3,0.1-0.6,0.1-0.9,0.1c-0.2,0-0.4,0-0.6-0.1
			c0.4,1.3,1.7,2.3,3.2,2.4c-1.2,0.9-2.6,1.4-4.2,1.4c-0.3,0-0.5,0-0.8,0c1.5,1,3.3,1.5,5.2,1.5c6.2,0,9.6-5.2,9.6-9.6
			c0-0.1,0-0.3,0-0.4C20.1,301.2,20.7,300.6,21.2,300z"/>
		<path fill="#F05B22" d="M43.1,314.5v-8.8h-2.3v-3.2h2.3c0,0,0-1.3,0-2.7c0-2.1,1.4-4.1,4.6-4.1c1.3,0,2.2,0.1,2.2,0.1l-0.1,3
			c0,0-1,0-2,0c-1.1,0-1.3,0.5-1.3,1.4c0,0.7,0-1.5,0,2.3h3.5l-0.2,3.2h-3.3v8.8H43.1z"/>
	</g>
	<g>
		<path fill="#FFFFFF" d="M21.2,336.5c-0.6,0.3-1.3,0.5-1.9,0.5c0.7-0.4,1.2-1.1,1.5-1.9c-0.7,0.4-1.4,0.7-2.1,0.8
			c-0.6-0.7-1.5-1.1-2.5-1.1c-1.9,0-3.4,1.5-3.4,3.4c0,0.3,0,0.5,0.1,0.8c-2.8-0.1-5.3-1.5-7-3.5c-0.3,0.5-0.5,1.1-0.5,1.7
			c0,1.2,0.6,2.2,1.5,2.8c-0.6,0-1.1-0.2-1.5-0.4c0,0,0,0,0,0c0,1.6,1.2,3,2.7,3.3c-0.3,0.1-0.6,0.1-0.9,0.1c-0.2,0-0.4,0-0.6-0.1
			c0.4,1.3,1.7,2.3,3.2,2.4c-1.2,0.9-2.6,1.4-4.2,1.4c-0.3,0-0.5,0-0.8,0c1.5,1,3.3,1.5,5.2,1.5c6.2,0,9.6-5.2,9.6-9.6
			c0-0.1,0-0.3,0-0.4C20.1,337.8,20.7,337.2,21.2,336.5z"/>
		<path fill="#FFFFFF" d="M43.1,351v-8.8h-2.3V339h2.3c0,0,0-1.3,0-2.7c0-2.1,1.4-4.1,4.6-4.1c1.3,0,2.2,0.1,2.2,0.1l-0.1,3
			c0,0-1,0-2,0c-1.1,0-1.3,0.5-1.3,1.4c0,0.7,0-1.5,0,2.3h3.5l-0.2,3.2h-3.3v8.8H43.1z"/>
	</g>
</g>
<g id="Color_Menu_Option" display="none">
</g>
<g id="Single_Menu">
</g>
<g id="Overlay" display="none">
</g>
<g id="Hover_State" display="none">
</g>
<g id="Grid">
</g>
</svg>
